<svg width="64" height="64" viewBox="0 0 64 64" fill="none" xmlns="http://www.w3.org/2000/svg">
  <defs>
    <linearGradient id="bellStroke" x1="10" y1="12" x2="54" y2="52" gradientUnits="userSpaceOnUse">
      <stop stop-color="#9BDFFF" />
      <stop offset="1" stop-color="#52E5FF" />
    </linearGradient>
  </defs>
  <path d="M32 10C24.8 10 19 15.8 19 23V29.3C19 32.8 17.8 36.2 15.6 38.9L12.8 42.4C12.1 43.3 12 44.5 12.5 45.5C13 46.5 14 47.1 15.1 47.1H48.9C50 47.1 51 46.5 51.5 45.5C52 44.5 51.9 43.3 51.2 42.4L48.4 38.9C46.2 36.2 45 32.8 45 29.3V23C45 15.8 39.2 10 32 10Z" stroke="url(#bellStroke)" stroke-width="3.4" stroke-linejoin="round" />
  <path d="M26 49.8C26.7 53 29.1 55 32 55C34.9 55 37.3 53 38 49.8" stroke="url(#bellStroke)" stroke-width="3.4" stroke-linecap="round" />
  <circle cx="44" cy="14" r="5" fill="#061025" stroke="#60E7FF" stroke-width="2" />
</svg>
